rompacta.ufo
<glyph name="I" format="2">
  <advance width="200"/>
  <unicode hex="0049"/>
  <outline>
    <contour>
      <point x="223" y="780" type="line"/>
      <point x="61" y="780" type="line"/>
      <point x="61" y="0" type="line"/>
      <point x="223" y="0" type="line"/>
    </contour>
  </outline>
</glyph>
<glyph name="N" format="2">
  <advance width="400"/>
  <unicode hex="004E"/>
  <outline>
    <contour>
      <point x="627" y="780" type="line"/>
      <point x="473" y="780" type="line"/>
      <point x="473" y="453" type="line"/>
      <point x="478" y="296" type="line"/>
      <point x="227" y="780" type="line"/>
      <point x="56" y="780" type="line"/>
      <point x="56" y="0" type="line"/>
      <point x="209" y="0" type="line"/>
      <point x="209" y="327" type="line"/>
      <point x="204" y="484" type="line"/>
      <point x="456" y="0" type="line"/>
      <point x="627" y="0" type="line"/>
    </contour>
  </outline>
</glyph>
<glyph name="A" format="2">
  <advance width="500"/>
  <outline>
    <contour>
      <point x="-9" y="0" type="line"/>
      <point x="170" y="0" type="line"/>
      <point x="196" y="179" type="line"/>
      <point x="327" y="176" type="line"/>
      <point x="365" y="0" type="line"/>
      <point x="520" y="0" type="line"/>
      <point x="369" y="677" type="line"/>
      <point x="148" y="675" type="line"/>
    </contour>
    <contour>
      <point x="260" y="535" type="line"/>
      <point x="324" y="258" type="line"/>
      <point x="196" y="258" type="line"/>
    </contour>
  </outline>
</glyph>
<glyph name="B" format="2">
  <advance width="400"/>
  <outline>
    <contour>
      <point x="18" y="700" type="line"/>
      <point x="18" y="0" type="line"/>
      <point x="212" y="0" type="line" smooth="yes"/>
      <point x="278" y="0"/>
      <point x="385" y="34"/>
      <point x="385" y="134" type="curve" smooth="yes"/>
      <point x="385" y="252" type="line" smooth="yes"/>
      <point x="385" y="316"/>
      <point x="345" y="346"/>
      <point x="289" y="363" type="curve"/>
      <point x="334" y="389"/>
      <point x="364" y="403"/>
      <point x="364" y="474" type="curve" smooth="yes"/>
      <point x="364" y="514" type="line" smooth="yes"/>
      <point x="364" y="667"/>
      <point x="266" y="700"/>
      <point x="184" y="700" type="curve" smooth="yes"/>
    </contour>
    <contour>
      <point x="177" y="318" type="line" smooth="yes"/>
      <point x="222" y="318"/>
      <point x="221" y="300"/>
      <point x="221" y="269" type="curve" smooth="yes"/>
      <point x="221" y="200" type="line" smooth="yes"/>
      <point x="221" y="159"/>
      <point x="222" y="140"/>
      <point x="177" y="140" type="curve" smooth="yes"/>
      <point x="160" y="140" type="line"/>
      <point x="160" y="318" type="line"/>
    </contour>
    <contour>
      <point x="173" y="560" type="line" smooth="yes"/>
      <point x="205" y="560"/>
      <point x="211" y="545"/>
      <point x="211" y="521" type="curve" smooth="yes"/>
      <point x="211" y="478" type="line" smooth="yes"/>
      <point x="211" y="434"/>
      <point x="205" y="429"/>
      <point x="173" y="429" type="curve" smooth="yes"/>
      <point x="160" y="429" type="line"/>
      <point x="160" y="560" type="line"/>
    </contour>
  </outline>
</glyph>
<glyph name="C" format="2">
  <advance width="650"/>
  <outline>
    <contour>
      <point x="203" y="170" type="curve" smooth="yes"/>
      <point x="203" y="514" type="line" smooth="yes"/>
      <point x="203" y="545"/>
      <point x="208" y="560"/>
      <point x="228" y="560" type="curve" smooth="yes"/>
      <point x="245" y="560"/>
      <point x="253" y="544"/>
      <point x="251" y="515" type="curve" smooth="yes"/>
      <point x="251" y="440" type="line"/>
      <point x="410" y="440" type="line"/>
      <point x="410" y="510" type="line" smooth="yes"/>
      <point x="410" y="634"/>
      <point x="340" y="700"/>
      <point x="278" y="700" type="curve" smooth="yes"/>
      <point x="190" y="700" type="line" smooth="yes"/>
      <point x="74" y="700"/>
      <point x="40" y="661"/>
      <point x="40" y="510" type="curve" smooth="yes"/>
      <point x="40" y="166" type="line" smooth="yes"/>
      <point x="40" y="53"/>
      <point x="77" y="0"/>
      <point x="170" y="0" type="curve" smooth="yes"/>
      <point x="278" y="0" type="line" smooth="yes"/>
      <point x="392" y="1"/>
      <point x="410" y="79"/>
      <point x="410" y="189" type="curve" smooth="yes"/>
      <point x="410" y="269" type="line"/>
      <point x="256" y="268" type="line"/>
      <point x="255" y="164" type="line" smooth="yes"/>
      <point x="255" y="140"/>
      <point x="245" y="127"/>
      <point x="230" y="127" type="curve" smooth="yes"/>
      <point x="213" y="127"/>
      <point x="203" y="138"/>
    </contour>
  </outline>
</glyph>
<glyph name="D" format="2">
  <advance width="450"/>
  <outline>
    <contour>
      <point x="400" y="220" type="curve" smooth="yes"/>
      <point x="400" y="420" type="line" smooth="yes"/>
      <point x="400" y="590"/>
      <point x="353" y="700"/>
      <point x="191" y="700" type="curve" smooth="yes"/>
      <point x="22" y="700" type="line"/>
      <point x="22" y="0" type="line"/>
      <point x="191" y="0" type="line" smooth="yes"/>
      <point x="353" y="0"/>
      <point x="400" y="60"/>
    </contour>
    <contour>
      <point x="174" y="140" type="line"/>
      <point x="174" y="560" type="line"/>
      <point x="182" y="560" type="line" smooth="yes"/>
      <point x="227" y="560"/>
      <point x="235" y="516"/>
      <point x="235" y="420" type="curve" smooth="yes"/>
      <point x="235" y="220" type="line" smooth="yes"/>
      <point x="235" y="174"/>
      <point x="227" y="140"/>
      <point x="192" y="140" type="curve" smooth="yes"/>
    </contour>
  </outline>
</glyph>
<glyph name="E" format="2">
  <advance width="300"/>
  <outline>
    <contour>
      <point x="11" y="700" type="line"/>
      <point x="11" y="0" type="line"/>
      <point x="288" y="0" type="line"/>
      <point x="288" y="120" type="line"/>
      <point x="173" y="120" type="line"/>
      <point x="173" y="308" type="line"/>
      <point x="248" y="308" type="line"/>
      <point x="248" y="428" type="line"/>
      <point x="173" y="428" type="line"/>
      <point x="173" y="580" type="line"/>
      <point x="288" y="580" type="line"/>
      <point x="288" y="700" type="line"/>
    </contour>
  </outline>
</glyph>
<glyph name="F" format="2">
  <advance width="300"/>
  <outline>
    <contour>
      <point x="16" y="700" type="line"/>
      <point x="16" y="0" type="line"/>
      <point x="178" y="0" type="line"/>
      <point x="178" y="268" type="line"/>
      <point x="239" y="268" type="line"/>
      <point x="239" y="408" type="line"/>
      <point x="178" y="408" type="line"/>
      <point x="178" y="560" type="line"/>
      <point x="289" y="560" type="line"/>
      <point x="289" y="700" type="line"/>
    </contour>
  </outline>
</glyph>
<glyph name="G" format="2">
  <advance width="400"/>
  <outline>
    <contour>
      <point x="246" y="-1" type="curve" smooth="yes"/>
      <point x="302" y="-1"/>
      <point x="352" y="15"/>
      <point x="382" y="78" type="curve"/>
      <point x="382" y="362" type="line"/>
      <point x="247" y="362" type="line"/>
      <point x="247" y="222" type="line"/>
      <point x="270" y="222" type="line"/>
      <point x="270" y="177" type="line"/>
      <point x="274" y="156"/>
      <point x="257" y="132"/>
      <point x="236" y="129" type="curve" smooth="yes"/>
      <point x="195" y="127" type="line" smooth="yes"/>
      <point x="151" y="127"/>
      <point x="155" y="154"/>
      <point x="155" y="310" type="curve" smooth="yes"/>
      <point x="155" y="350" type="line" smooth="yes"/>
      <point x="155" y="473"/>
      <point x="161" y="555"/>
      <point x="198" y="555" type="curve" smooth="yes"/>
      <point x="208" y="555" type="line" smooth="yes"/>
      <point x="248" y="555"/>
      <point x="271" y="528"/>
      <point x="271" y="421" type="curve"/>
      <point x="383" y="421" type="line"/>
      <point x="383" y="447" type="line" smooth="yes"/>
      <point x="383" y="642"/>
      <point x="335" y="700"/>
      <point x="229" y="700" type="curve" smooth="yes"/>
      <point x="27" y="700"/>
      <point x="10" y="587"/>
      <point x="10" y="350" type="curve" smooth="yes"/>
      <point x="10" y="310" type="line" smooth="yes"/>
      <point x="10" y="40"/>
      <point x="34" y="-1"/>
    </contour>
  </outline>
</glyph>
<glyph name="H" format="2">
  <advance width="400"/>
  <outline>
    <contour>
      <point x="225" y="700" type="line"/>
      <point x="225" y="438" type="line"/>
      <point x="178" y="438" type="line"/>
      <point x="178" y="700" type="line"/>
      <point x="16" y="700" type="line"/>
      <point x="16" y="0" type="line"/>
      <point x="178" y="0" type="line"/>
      <point x="178" y="308" type="line"/>
      <point x="225" y="308" type="line"/>
      <point x="225" y="0" type="line"/>
      <point x="387" y="0" type="line"/>
      <point x="387" y="700" type="line"/>
    </contour>
  </outline>
</glyph>
<glyph name="K" format="2">
  <advance width="400"/>
  <outline>
    <contour>
      <point x="168" y="700" type="line"/>
      <point x="16" y="700" type="line"/>
      <point x="16" y="0" type="line"/>
      <point x="168" y="0" type="line"/>
      <point x="168" y="215" type="line"/>
      <point x="246" y="0" type="line"/>
      <point x="426" y="0" type="line"/>
      <point x="282" y="352" type="line"/>
      <point x="426" y="700" type="line"/>
      <point x="230" y="700" type="line"/>
      <point x="168" y="464" type="line"/>
    </contour>
  </outline>
</glyph>
<glyph name="L" format="2">
  <advance width="300"/>
  <outline>
    <contour>
      <point x="286" y="0" type="line"/>
      <point x="286" y="140" type="line"/>
      <point x="178" y="140" type="line"/>
      <point x="178" y="700" type="line"/>
      <point x="16" y="700" type="line"/>
      <point x="16" y="0" type="line"/>
    </contour>
  </outline>
</glyph>
<glyph name="M" format="2">
  <advance width="600"/>
  <outline>
    <contour>
      <point x="486" y="419" type="line"/>
      <point x="482" y="263" type="line"/>
      <point x="482" y="0" type="line"/>
      <point x="634" y="0" type="line"/>
      <point x="634" y="700" type="line"/>
      <point x="404" y="700" type="line"/>
      <point x="335" y="201" type="line"/>
      <point x="235" y="700" type="line"/>
      <point x="16" y="700" type="line"/>
      <point x="16" y="0" type="line"/>
      <point x="178" y="0" type="line"/>
      <point x="178" y="263" type="line"/>
      <point x="173" y="419" type="line"/>
      <point x="252" y="0" type="line"/>
      <point x="417" y="0" type="line"/>
    </contour>
  </outline>
</glyph>
<glyph name="O" format="2">
  <advance width="400"/>
  <outline>
    <contour>
      <point x="204" y="-2" type="curve" smooth="yes"/>
      <point x="337" y="-2"/>
      <point x="384" y="41"/>
      <point x="384" y="130" type="curve" smooth="yes"/>
      <point x="384" y="558" type="line" smooth="yes"/>
      <point x="384" y="628"/>
      <point x="337" y="701"/>
      <point x="204" y="701" type="curve" smooth="yes"/>
      <point x="52" y="701"/>
      <point x="9" y="628"/>
      <point x="9" y="558" type="curve" smooth="yes"/>
      <point x="9" y="130" type="line" smooth="yes"/>
      <point x="9" y="41"/>
      <point x="52" y="-2"/>
    </contour>
    <contour>
      <point x="195" y="138" type="line" smooth="yes"/>
      <point x="172" y="138"/>
      <point x="173" y="205"/>
      <point x="173" y="300" type="curve" smooth="yes"/>
      <point x="173" y="378" type="line" smooth="yes"/>
      <point x="173" y="474"/>
      <point x="172" y="561"/>
      <point x="195" y="561" type="curve" smooth="yes"/>
      <point x="204" y="561" type="line" smooth="yes"/>
      <point x="220" y="561"/>
      <point x="219" y="474"/>
      <point x="219" y="378" type="curve" smooth="yes"/>
      <point x="219" y="300" type="line" smooth="yes"/>
      <point x="219" y="205"/>
      <point x="220" y="138"/>
      <point x="204" y="138" type="curve" smooth="yes"/>
    </contour>
  </outline>
</glyph>
<glyph name="P" format="2">
  <advance width="400"/>
  <outline>
    <contour>
      <point x="177" y="210" type="line"/>
      <point x="191" y="210" type="line" smooth="yes"/>
      <point x="288" y="210"/>
      <point x="392" y="232"/>
      <point x="392" y="400" type="curve" smooth="yes"/>
      <point x="392" y="510" type="line" smooth="yes"/>
      <point x="392" y="667"/>
      <point x="298" y="700"/>
      <point x="191" y="700" type="curve" smooth="yes"/>
      <point x="15" y="700" type="line"/>
      <point x="15" y="0" type="line"/>
      <point x="177" y="0" type="line"/>
    </contour>
    <contour>
      <point x="177" y="350" type="line"/>
      <point x="177" y="560" type="line"/>
      <point x="198" y="560" type="line" smooth="yes"/>
      <point x="212" y="560"/>
      <point x="228" y="543"/>
      <point x="228" y="505" type="curve" smooth="yes"/>
      <point x="228" y="405" type="line" smooth="yes"/>
      <point x="228" y="357"/>
      <point x="212" y="350"/>
      <point x="198" y="350" type="curve" smooth="yes"/>
    </contour>
  </outline>
</glyph>
<glyph name="S" format="2">
  <advance width="400"/>
  <outline>
    <contour>
      <point x="196" y="286" type="curve" smooth="yes"/>
      <point x="237" y="268"/>
      <point x="254" y="247"/>
      <point x="254" y="211" type="curve" smooth="yes"/>
      <point x="254" y="166" type="line" smooth="yes"/>
      <point x="254" y="134"/>
      <point x="235" y="124"/>
      <point x="216" y="127" type="curve" smooth="yes"/>
      <point x="207" y="127" type="line" smooth="yes"/>
      <point x="182" y="127"/>
      <point x="172" y="158"/>
      <point x="172" y="216" type="curve"/>
      <point x="10" y="216" type="line"/>
      <point x="10" y="177" type="line" smooth="yes"/>
      <point x="10" y="39"/>
      <point x="37" y="-1"/>
      <point x="221" y="-1" type="curve" smooth="yes"/>
      <point x="324" y="-1"/>
      <point x="393" y="-6"/>
      <point x="393" y="144" type="curve" smooth="yes"/>
      <point x="393" y="204" type="line" smooth="yes"/>
      <point x="393" y="309"/>
      <point x="374" y="371"/>
      <point x="247" y="420" type="curve" smooth="yes"/>
      <point x="203" y="437"/>
      <point x="180" y="445"/>
      <point x="180" y="472" type="curve" smooth="yes"/>
      <point x="180" y="527" type="line" smooth="yes"/>
      <point x="180" y="547"/>
      <point x="181" y="583"/>
      <point x="213" y="583" type="curve" smooth="yes"/>
      <point x="222" y="583" type="line" smooth="yes"/>
      <point x="244" y="583"/>
      <point x="245" y="536"/>
      <point x="245" y="464" type="curve"/>
      <point x="387" y="464" type="line"/>
      <point x="387" y="485" type="line" smooth="yes"/>
      <point x="387" y="638"/>
      <point x="343" y="700"/>
      <point x="201" y="700" type="curve" smooth="yes"/>
      <point x="63" y="700"/>
      <point x="16" y="682"/>
      <point x="16" y="541" type="curve" smooth="yes"/>
      <point x="16" y="450" type="line" smooth="yes"/>
      <point x="16" y="389"/>
      <point x="68" y="342"/>
    </contour>
  </outline>
</glyph>
<glyph name="T" format="2">
  <advance width="300"/>
  <outline>
    <contour>
      <point x="233" y="570" type="line"/>
      <point x="300" y="570" type="line"/>
      <point x="300" y="700" type="line"/>
      <point x="0" y="700" type="line"/>
      <point x="0" y="570" type="line"/>
      <point x="71" y="570" type="line"/>
      <point x="71" y="0" type="line"/>
      <point x="233" y="0" type="line"/>
    </contour>
  </outline>
</glyph>
<glyph name="U" format="2">
  <advance width="400"/>
  <outline>
    <contour>
      <point x="201" y="-1" type="curve" smooth="yes"/>
      <point x="383" y="-1"/>
      <point x="391" y="37"/>
      <point x="391" y="167" type="curve" smooth="yes"/>
      <point x="391" y="700" type="line"/>
      <point x="229" y="700" type="line"/>
      <point x="229" y="232" type="line" smooth="yes"/>
      <point x="229" y="149"/>
      <point x="233" y="127"/>
      <point x="201" y="127" type="curve" smooth="yes"/>
      <point x="169" y="127"/>
      <point x="173" y="149"/>
      <point x="173" y="232" type="curve" smooth="yes"/>
      <point x="173" y="700" type="line"/>
      <point x="11" y="700" type="line"/>
      <point x="11" y="167" type="line" smooth="yes"/>
      <point x="11" y="37"/>
      <point x="19" y="-1"/>
    </contour>
  </outline>
</glyph>
<glyph name="V" format="2">
  <advance width="400"/>
  <outline>
    <contour>
      <point x="302" y="-2" type="line"/>
      <point x="401" y="700" type="line"/>
      <point x="229" y="700" type="line"/>
      <point x="203" y="238" type="line"/>
      <point x="172" y="700" type="line"/>
      <point x="-1" y="700" type="line"/>
      <point x="98" y="-1" type="line"/>
    </contour>
  </outline>
</glyph>
<glyph name="X" format="2">
  <advance width="400"/>
  <outline>
    <contour>
      <point x="0" y="0" type="line"/>
      <point x="169" y="0" type="line"/>
      <point x="197" y="254" type="line"/>
      <point x="231" y="0" type="line"/>
      <point x="401" y="0" type="line"/>
      <point x="313" y="372" type="line"/>
      <point x="401" y="700" type="line"/>
      <point x="223" y="700" type="line"/>
      <point x="197" y="474" type="line"/>
      <point x="168" y="700" type="line"/>
      <point x="0" y="700" type="line"/>
      <point x="82" y="372" type="line"/>
    </contour>
  </outline>
</glyph>
<glyph name="Y" format="2">
  <advance width="400"/>
  <outline>
    <contour>
      <point x="278" y="260" type="line"/>
      <point x="401" y="700" type="line"/>
      <point x="224" y="700" type="line"/>
      <point x="202" y="449" type="line"/>
      <point x="179" y="700" type="line"/>
      <point x="2" y="700" type="line"/>
      <point x="116" y="260" type="line"/>
      <point x="116" y="0" type="line"/>
      <point x="278" y="0" type="line"/>
    </contour>
  </outline>
</glyph>
<glyph name="Z" format="2">
  <advance width="300"/>
  <outline>
    <contour>
      <point x="10" y="111" type="line"/>
      <point x="10" y="0" type="line"/>
      <point x="289" y="0" type="line"/>
      <point x="289" y="140" type="line"/>
      <point x="211" y="140" type="line"/>
      <point x="188" y="137" type="line"/>
      <point x="289" y="589" type="line"/>
      <point x="289" y="700" type="line"/>
      <point x="20" y="700" type="line"/>
      <point x="20" y="560" type="line"/>
      <point x="88" y="560" type="line"/>
      <point x="111" y="563" type="line"/>
    </contour>
  </outline>
</glyph>
